# xmcd CD database file
#
# Track frame offsets:
#	150
#	28270
#	47795
#	76462
#	107047
#	124727
#	150522
#
# Disc length: 2139 seconds
#
# Revision: 0
# Processed by: cddbd v1.5.1PL2 Copyright (c) Steve Scherf et al.
# Submitted via: CDex 1.60beta1-cs1
#
DISCID=53085907
DTITLE=Sonny Rollins - Reel Life
DYEAR=1982
DGENRE=Jazz
TTITLE0=Reel Life
TTITLE1=McGhee
TTITLE2=Rosita's Best Friend
TTITLE3=Sonny Side Up
TTITLE4=My Little Brown Book
TTITLE5=Best Wishes
TTITLE6=Solo Reprise
EXTD=YEAR: 1982
EXTT0=
EXTT1=
EXTT2=
EXTT3=
EXTT4=
EXTT5=
EXTT6=
PLAYORDER=
